<?xml version="1.0" encoding="iso-8859-1"?>
<!-- Uploaded to: SVG Repo, www.svgrepo.com, Generator: SVG Repo Mixer Tools -->
<svg fill="#000000" height="800px" width="800px" version="1.1" id="Layer_1" xmlns="http://www.w3.org/2000/svg" xmlns:xlink="http://www.w3.org/1999/xlink" 
	 viewBox="0 0 305.422 305.422" xml:space="preserve">
<path id="XMLID_2_" d="M35.727,192.027L16.656,211.1c-21.618,21.611-22.232,56.063-1.399,78.428c0.241,0.26,0.492,0.51,0.751,0.752
	c10.484,9.766,24.155,15.143,38.497,15.143c15.084,0,29.266-5.873,39.932-16.541l19.078-19.078l107.52-43.965
	c0.046-0.018,0.092-0.037,0.138-0.055l57.304-23.432c18.434-7.533,24.439-19.727,26.231-28.627
	c2.857-14.193-3.296-30.525-16.459-43.686c-10.889-10.889-26.24-16.379-42.33-16.133c1.202-14.109-3.35-28.625-13.729-39.859
	c-0.269-0.289-0.548-0.568-0.838-0.838c-11.236-10.381-25.754-14.926-39.861-13.73c0.254-16.102-5.246-31.443-16.134-42.332
	C164.32,6.107,151.056,0,138.692,0c-2.381,0-4.729,0.227-7.02,0.688c-8.901,1.793-21.095,7.797-28.632,26.242L79.657,84.281
	c-0.017,0.039-0.032,0.078-0.048,0.117L35.727,192.027z M111.427,238.246l61.725-47.424l15.746,15.746L111.427,238.246z
	 M87.778,218.584l-0.969-0.969l49.158-63.979l15.791,15.791L87.778,218.584z M67.544,193.449l31.349-76.889l15.68,15.682
	L67.544,193.449z M73.222,267.668c-4.999,5-11.647,7.754-18.718,7.754c-6.549,0-12.798-2.389-17.656-6.736
	c-9.397-10.49-8.99-26.365,1.02-36.373l10.606-10.605l35.355,35.355L73.222,267.668z M267.035,151.254
	c6.631,6.629,8.931,13.225,8.261,16.549c-0.656,3.26-5.4,5.645-8.173,6.779l-48.112,19.672l-21.866-21.865l30.996-23.816
	C242.108,141.484,258.326,142.545,267.035,151.254z M210.55,94.848c7.56,8.619,7.309,21.467-0.536,29.82l-34.264,26.326
	l-21.35-21.35l26.326-34.264C189.08,87.537,201.93,87.289,210.55,94.848z M130.815,38.268c1.131-2.77,3.517-7.514,6.777-8.17
	c3.318-0.668,9.919,1.629,16.548,8.26c8.71,8.711,9.772,24.93,2.682,38.896l-23.815,30.996l-21.826-21.826L130.815,38.268z"/>
</svg>